# 3ds Max Wavefront OBJ Exporter v0.97b - (c)2007 guruware
# File Created: 08.12.2016 13:00:32

mtllib polygon.mtl

#
# object Cylinder001
#

v  -3.4869 0.0000 4.9723
v  -3.8895 0.0000 4.2752
v  -3.0844 0.0000 4.2752
v  -2.6819 0.0000 4.9723
v  -3.8895 0.0000 5.6695
v  -4.2920 0.0000 4.9723
v  -3.0844 0.0000 5.6695
v  -3.0844 2.0194 4.2752
v  -2.6819 2.0194 4.9723
v  -3.8895 2.0194 4.2752
v  -4.2920 2.0194 4.9723
v  -3.8895 2.0194 5.6695
v  -3.0844 2.0194 5.6695
v  -3.4869 2.0194 4.9723
# 14 vertices

vn 0.0000 -1.0000 -0.0000
vn 1.0000 0.0000 0.0000
vn 0.5000 0.0000 -0.8660
vn 1.0000 0.0000 -0.0000
vn -0.5000 0.0000 -0.8660
vn -1.0000 0.0000 0.0000
vn -0.5000 0.0000 0.8660
vn 0.5000 0.0000 0.8660
vn 0.0000 1.0000 -0.0000
# 9 vertex normals

vt 0.5000 0.0000 0.0000
vt 0.6667 0.0000 -0.0000
vt 0.9167 0.0000 1.0000
vt 0.7500 0.0000 1.0000
vt 0.4167 0.0000 1.0000
vt 0.2500 0.0000 1.0000
vt 0.0833 0.0000 1.0000
vt 0.5833 0.0000 1.0000
vt 0.9167 1.0000 1.0000
vt 0.7500 1.0000 1.0000
vt -0.0833 0.0000 1.0000
vt 0.0833 1.0000 1.0000
vt -0.0833 1.0000 1.0000
vt 0.2500 1.0000 1.0000
vt 0.4167 1.0000 1.0000
vt 0.5833 1.0000 1.0000
vt 0.5000 1.0000 0.0000
# 17 texture coords

g Cylinder001
usemtl wire_198225087
s 1
f 1/1/1 2/2/1 3/3/1 4/4/1 
f 1/1/1 5/5/1 6/6/1 2/7/1 
f 1/1/1 4/4/1 7/8/1 5/5/1 
s 8
f 4/4/2 3/3/3 8/9/3 9/10/4 
f 3/11/3 2/7/5 10/12/5 8/13/3 
f 2/7/5 6/6/6 11/14/6 10/12/5 
f 6/6/6 5/5/7 12/15/7 11/14/6 
f 5/5/7 7/8/8 13/16/8 12/15/7 
f 7/8/8 4/4/2 9/10/4 13/16/8 
s 1
f 14/17/9 13/16/9 9/10/9 8/9/9 
f 14/17/9 8/13/9 10/12/9 11/14/9 
f 14/17/9 11/14/9 12/15/9 13/16/9 
# 12 polygons

