# 3ds Max Wavefront OBJ Exporter v0.97b - (c)2007 guruware
# File Created: 08.12.2016 11:31:55

mtllib pyramid.mtl

#
# object Pyramid001
#

v  -19.7647 21.3127 -1.1174
v  -35.4638 0.0050 14.2670
v  -4.0657 0.0050 14.2670
v  -4.0657 0.0050 -16.5018
v  -35.4638 0.0050 -16.5018
v  -19.7647 0.0050 -1.1174
# 6 vertices

vn 0.0000 0.5854 0.8108
vn 0.8051 0.5932 -0.0000
vn 0.0000 0.5854 -0.8108
vn -0.8051 0.5932 -0.0000
vn 0.0000 -1.0000 -0.0000
# 5 vertex normals

vt 0.5000 1.0000 0.0000
vt 0.0000 0.0000 0.0000
vt 1.0000 0.0000 0.0000
vt -0.0102 0.0000 0.0000
vt 0.9898 0.0000 0.0000
vt 0.0000 1.0000 0.0000
vt 0.5000 0.5000 0.0000
vt 1.0000 1.0000 0.0000
# 8 texture coords

g Pyramid001
usemtl wire_028028177
s 4
f 1/1/1 2/2/1 3/3/1 
s 2
f 1/1/2 3/4/2 4/5/2 
s 16
f 1/1/3 4/2/3 5/3/3 
s 32
f 1/1/4 5/4/4 2/5/4 
s 8
f 2/6/5 6/7/5 3/8/5 
f 3/8/5 6/7/5 4/3/5 
f 4/3/5 6/7/5 5/2/5 
f 5/2/5 6/7/5 2/6/5 
# 0 polygons - 8 triangles

